<?xml version="1.0" encoding="UTF-8"?>
<!DOCTYPE svg PUBLIC "-//W3C//DTD SVG 1.1//EN" "http://www.w3.org/Graphics/SVG/1.1/DTD/svg11.dtd">
<!-- Creator: CorelDRAW X8 -->
<svg xmlns="http://www.w3.org/2000/svg" xml:space="preserve" width="5.82677in" height="8.26772in" version="1.1" style="shape-rendering:geometricPrecision; text-rendering:geometricPrecision; image-rendering:optimizeQuality; fill-rule:evenodd; clip-rule:evenodd"
viewBox="0 0 5827 8268"
 xmlns:xlink="http://www.w3.org/1999/xlink">
 <defs>
  <style type="text/css">
   <![CDATA[
    .fil2 {fill:none;fill-rule:nonzero}
    .fil0 {fill:#FFCC00;fill-rule:nonzero}
    .fil1 {fill:#FFCC00;fill-opacity:0.321569}
   ]]>
  </style>
   <clipPath id="id0" style="clip-rule:nonzero">
    <path d="M3137 1140c0,745 534,779 534,0 471,0 267,818 267,1334l-267 0 0 -533 -268 -222 -266 222 0 533 -267 0c0,-516 -205,-1334 267,-1334z"/>
   </clipPath>
 </defs>
 <g id="Layer_x0020_1">
  <metadata id="CorelCorpID_0Corel-Layer"/>
  <path class="fil0" d="M3137 1140c0,745 534,779 534,0 471,0 267,818 267,1334l-267 0 0 -533 -268 -222 -266 222 0 533 -267 0c0,-516 -205,-1334 267,-1334z"/>
  <g style="clip-path:url(#id0)">
   <g id="_632531512">
    <path id="1" class="fil1" d="M2036 2113c261,0 472,219 472,488 0,269 -211,488 -472,488 -260,0 -472,-219 -472,-488 0,-269 212,-488 472,-488z"/>
   </g>
  </g>
  <path class="fil2" d="M3137 1140c0,745 534,779 534,0 471,0 267,818 267,1334l-267 0 0 -533 -268 -222 -266 222 0 533 -267 0c0,-516 -205,-1334 267,-1334z"/>
 </g>
</svg>
